
<svg width="355" height="427" viewBox="0 0 355 427" fill="none" xmlns="http://www.w3.org/2000/svg">
<g clip-path="url(#clip0_2_49)">
<g filter="url(#filter0_d_2_49)">
<rect x="6" y="251" width="343" height="80" rx="5" fill="white"/>
</g>
<circle cx="27.5" cy="273.5" r="12.5" fill="#CCCCCC" fill-opacity="0.25"/>
<path d="M17 300C17 297.239 19.2386 295 22 295H32C34.7614 295 37 297.239 37 300V310C37 312.761 34.7614 315 32 315H22C19.2386 315 17 312.761 17 310V300Z" fill="#DC2626" fill-opacity="0.12"/>
<rect x="52" y="265" width="54" height="17" rx="8.5" fill="#D9D9D9" fill-opacity="0.5"/>
<rect x="52" y="297" width="64" height="7" rx="2" fill="#D9D9D9" fill-opacity="0.5"/>
<rect x="120" y="297" width="44" height="7" rx="2" fill="#D9D9D9" fill-opacity="0.5"/>
<rect x="167" y="297" width="164" height="7" rx="2" fill="#D9D9D9" fill-opacity="0.5"/>
<rect x="52" y="308" width="101" height="7" rx="2" fill="#D9D9D9" fill-opacity="0.5"/>
<rect x="155" y="308" width="101" height="7" rx="2" fill="#D9D9D9" fill-opacity="0.5"/>
<rect x="110" y="265" width="76" height="17" rx="8.5" fill="#D9D9D9" fill-opacity="0.5"/>
<rect x="190" y="265" width="102" height="17" rx="8.5" fill="#D9D9D9" fill-opacity="0.5"/>
<g filter="url(#filter1_d_2_49)">
<rect x="6" y="163" width="343" height="80" rx="5" fill="white"/>
</g>
<circle cx="27.5" cy="185.5" r="12.5" fill="#CCCCCC" fill-opacity="0.25"/>
<path d="M17 212C17 209.239 19.2386 207 22 207H32C34.7614 207 37 209.239 37 212V222C37 224.761 34.7614 227 32 227H22C19.2386 227 17 224.761 17 222V212Z" fill="#DC2626" fill-opacity="0.12"/>
<rect x="52" y="177" width="54" height="17" rx="8.5" fill="#D9D9D9" fill-opacity="0.5"/>
<rect x="52" y="209" width="64" height="7" rx="2" fill="#D9D9D9" fill-opacity="0.5"/>
<rect x="120" y="209" width="44" height="7" rx="2" fill="#D9D9D9" fill-opacity="0.5"/>
<rect x="167" y="209" width="164" height="7" rx="2" fill="#D9D9D9" fill-opacity="0.5"/>
<rect x="52" y="220" width="101" height="7" rx="2" fill="#D9D9D9" fill-opacity="0.5"/>
<rect x="155" y="220" width="101" height="7" rx="2" fill="#D9D9D9" fill-opacity="0.5"/>
<rect x="110" y="177" width="76" height="17" rx="8.5" fill="#D9D9D9" fill-opacity="0.5"/>
<rect x="190" y="177" width="102" height="17" rx="8.5" fill="#D9D9D9" fill-opacity="0.5"/>
<path d="M0 378H355V417C355 422.523 350.523 427 345 427H10C4.47716 427 0 422.523 0 417V378Z" fill="#111827"/>
<g filter="url(#filter2_d_2_49)">
<circle cx="178" cy="378" r="25" fill="url(#paint0_linear_2_49)"/>
</g>
<path d="M189.214 378.286C189.214 379.273 188.415 380.072 187.429 380.072H179.393V388.108C179.393 389.095 178.593 389.893 177.607 389.893C176.621 389.893 175.821 389.095 175.821 388.108V380.072H167.786C166.8 380.072 166 379.273 166 378.286C166 377.299 166.8 376.501 167.786 376.501H175.821V368.465C175.821 367.478 176.621 366.679 177.607 366.679C178.593 366.679 179.393 367.478 179.393 368.465V376.501H187.429C188.416 376.5 189.214 377.298 189.214 378.286Z" fill="white" fill-opacity="0.75"/>
<rect x="153" y="411" width="49" height="5" rx="2.5" fill="white" fill-opacity="0.5"/>
<g filter="url(#filter3_d_2_49)">
<rect x="6" y="75" width="343" height="80" rx="5" fill="white"/>
</g>
<circle cx="27.5" cy="97.5" r="12.5" fill="#CCCCCC" fill-opacity="0.25"/>
<path d="M17 124C17 121.239 19.2386 119 22 119H32C34.7614 119 37 121.239 37 124V134C37 136.761 34.7614 139 32 139H22C19.2386 139 17 136.761 17 134V124Z" fill="#DC2626" fill-opacity="0.12"/>
<rect x="52" y="89" width="54" height="17" rx="8.5" fill="#D9D9D9" fill-opacity="0.5"/>
<rect x="52" y="121" width="64" height="7" rx="2" fill="#D9D9D9" fill-opacity="0.5"/>
<rect x="120" y="121" width="44" height="7" rx="2" fill="#D9D9D9" fill-opacity="0.5"/>
<rect x="167" y="121" width="164" height="7" rx="2" fill="#D9D9D9" fill-opacity="0.5"/>
<rect x="52" y="132" width="101" height="7" rx="2" fill="#D9D9D9" fill-opacity="0.5"/>
<rect x="155" y="132" width="101" height="7" rx="2" fill="#D9D9D9" fill-opacity="0.5"/>
<rect x="110" y="89" width="76" height="17" rx="8.5" fill="#D9D9D9" fill-opacity="0.5"/>
<rect x="190" y="89" width="102" height="17" rx="8.5" fill="#D9D9D9" fill-opacity="0.5"/>
<g filter="url(#filter4_d_2_49)">
<rect x="6" y="-13" width="343" height="80" rx="5" fill="white"/>
</g>
<circle cx="27.5" cy="9.5" r="12.5" fill="#CCCCCC" fill-opacity="0.25"/>
<path d="M17 36C17 33.2386 19.2386 31 22 31H32C34.7614 31 37 33.2386 37 36V46C37 48.7614 34.7614 51 32 51H22C19.2386 51 17 48.7614 17 46V36Z" fill="#DC2626" fill-opacity="0.12"/>
<rect x="52" y="1" width="54" height="17" rx="8.5" fill="#D9D9D9" fill-opacity="0.5"/>
<rect x="52" y="33" width="64" height="7" rx="2" fill="#D9D9D9" fill-opacity="0.5"/>
<rect x="120" y="33" width="44" height="7" rx="2" fill="#D9D9D9" fill-opacity="0.5"/>
<rect x="167" y="33" width="164" height="7" rx="2" fill="#D9D9D9" fill-opacity="0.5"/>
<rect x="52" y="44" width="101" height="7" rx="2" fill="#D9D9D9" fill-opacity="0.5"/>
<rect x="155" y="44" width="101" height="7" rx="2" fill="#D9D9D9" fill-opacity="0.5"/>
<rect x="110" y="1" width="76" height="17" rx="8.5" fill="#D9D9D9" fill-opacity="0.5"/>
<rect x="190" y="1" width="102" height="17" rx="8.5" fill="#D9D9D9" fill-opacity="0.5"/>
</g>
<defs>
<filter id="filter0_d_2_49" x="2.16" y="249.16" width="350.68" height="87.68" filterUnits="userSpaceOnUse" color-interpolation-filters="sRGB">
<feFlood flood-opacity="0" result="BackgroundImageFix"/>
<feColorMatrix in="SourceAlpha" type="matrix" values="0 0 0 0 0 0 0 0 0 0 0 0 0 0 0 0 0 0 127 0" result="hardAlpha"/>
<feOffset dy="2"/>
<feGaussianBlur stdDeviation="1.92"/>
<feComposite in2="hardAlpha" operator="out"/>
<feColorMatrix type="matrix" values="0 0 0 0 0.501961 0 0 0 0 0.501961 0 0 0 0 0.501961 0 0 0 0.25 0"/>
<feBlend mode="normal" in2="BackgroundImageFix" result="effect1_dropShadow_2_49"/>
<feBlend mode="normal" in="SourceGraphic" in2="effect1_dropShadow_2_49" result="shape"/>
</filter>
<filter id="filter1_d_2_49" x="2.16" y="161.16" width="350.68" height="87.68" filterUnits="userSpaceOnUse" color-interpolation-filters="sRGB">
<feFlood flood-opacity="0" result="BackgroundImageFix"/>
<feColorMatrix in="SourceAlpha" type="matrix" values="0 0 0 0 0 0 0 0 0 0 0 0 0 0 0 0 0 0 127 0" result="hardAlpha"/>
<feOffset dy="2"/>
<feGaussianBlur stdDeviation="1.92"/>
<feComposite in2="hardAlpha" operator="out"/>
<feColorMatrix type="matrix" values="0 0 0 0 0.501961 0 0 0 0 0.501961 0 0 0 0 0.501961 0 0 0 0.25 0"/>
<feBlend mode="normal" in2="BackgroundImageFix" result="effect1_dropShadow_2_49"/>
<feBlend mode="normal" in="SourceGraphic" in2="effect1_dropShadow_2_49" result="shape"/>
</filter>
<filter id="filter2_d_2_49" x="128" y="328" width="100" height="100" filterUnits="userSpaceOnUse" color-interpolation-filters="sRGB">
<feFlood flood-opacity="0" result="BackgroundImageFix"/>
<feColorMatrix in="SourceAlpha" type="matrix" values="0 0 0 0 0 0 0 0 0 0 0 0 0 0 0 0 0 0 127 0" result="hardAlpha"/>
<feMorphology radius="5" operator="dilate" in="SourceAlpha" result="effect1_dropShadow_2_49"/>
<feOffset/>
<feGaussianBlur stdDeviation="10"/>
<feComposite in2="hardAlpha" operator="out"/>
<feColorMatrix type="matrix" values="0 0 0 0 0.26 0 0 0 0 1 0 0 0 0 0 0 0 0 0.38 0"/>
<feBlend mode="normal" in2="BackgroundImageFix" result="effect1_dropShadow_2_49"/>
<feBlend mode="normal" in="SourceGraphic" in2="effect1_dropShadow_2_49" result="shape"/>
</filter>
<filter id="filter3_d_2_49" x="2.16" y="73.16" width="350.68" height="87.68" filterUnits="userSpaceOnUse" color-interpolation-filters="sRGB">
<feFlood flood-opacity="0" result="BackgroundImageFix"/>
<feColorMatrix in="SourceAlpha" type="matrix" values="0 0 0 0 0 0 0 0 0 0 0 0 0 0 0 0 0 0 127 0" result="hardAlpha"/>
<feOffset dy="2"/>
<feGaussianBlur stdDeviation="1.92"/>
<feComposite in2="hardAlpha" operator="out"/>
<feColorMatrix type="matrix" values="0 0 0 0 0.501961 0 0 0 0 0.501961 0 0 0 0 0.501961 0 0 0 0.25 0"/>
<feBlend mode="normal" in2="BackgroundImageFix" result="effect1_dropShadow_2_49"/>
<feBlend mode="normal" in="SourceGraphic" in2="effect1_dropShadow_2_49" result="shape"/>
</filter>
<filter id="filter4_d_2_49" x="2.16" y="-14.84" width="350.68" height="87.68" filterUnits="userSpaceOnUse" color-interpolation-filters="sRGB">
<feFlood flood-opacity="0" result="BackgroundImageFix"/>
<feColorMatrix in="SourceAlpha" type="matrix" values="0 0 0 0 0 0 0 0 0 0 0 0 0 0 0 0 0 0 127 0" result="hardAlpha"/>
<feOffset dy="2"/>
<feGaussianBlur stdDeviation="1.92"/>
<feComposite in2="hardAlpha" operator="out"/>
<feColorMatrix type="matrix" values="0 0 0 0 0.501961 0 0 0 0 0.501961 0 0 0 0 0.501961 0 0 0 0.25 0"/>
<feBlend mode="normal" in2="BackgroundImageFix" result="effect1_dropShadow_2_49"/>
<feBlend mode="normal" in="SourceGraphic" in2="effect1_dropShadow_2_49" result="shape"/>
</filter>
<linearGradient id="paint0_linear_2_49" x1="153" y1="353" x2="203" y2="403" gradientUnits="userSpaceOnUse">
<stop stop-color="#05E400"/>
<stop offset="1" stop-color="#00FFF0"/>
</linearGradient>
<clipPath id="clip0_2_49">
<rect width="355" height="427" fill="white"/>
</clipPath>
</defs>
</svg>
