
<svg width="351" height="225" viewBox="0 0 351 225" fill="none" xmlns="http://www.w3.org/2000/svg">
<g filter="url(#filter0_i_4_153)">
<path d="M342 2H9C6.23858 2 4 4.23858 4 7V77C4 79.7614 6.23858 82 9 82H342C344.761 82 347 79.7614 347 77V7C347 4.23858 344.761 2 342 2Z" fill="white"/>
</g>
<g filter="url(#filter1_i_4_153)">
<path d="M15 44C15 41.2386 17.2386 39 20 39H30C32.7614 39 35 41.2386 35 44V54C35 56.7614 32.7614 59 30 59H20C17.2386 59 15 56.7614 15 54V44Z" fill="url(#paint0_linear_4_153)"/>
</g>
<path d="M95.5 16H58.5C53.8056 16 50 19.8056 50 24.5C50 29.1944 53.8056 33 58.5 33H95.5C100.194 33 104 29.1944 104 24.5C104 19.8056 100.194 16 95.5 16Z" fill="#D9D9D9" fill-opacity="0.5"/>
<path d="M112 48H52C50.8954 48 50 48.8954 50 50V53C50 54.1046 50.8954 55 52 55H112C113.105 55 114 54.1046 114 53V50C114 48.8954 113.105 48 112 48Z" fill="#D9D9D9" fill-opacity="0.5"/>
<path d="M160 48H120C118.895 48 118 48.8954 118 50V53C118 54.1046 118.895 55 120 55H160C161.105 55 162 54.1046 162 53V50C162 48.8954 161.105 48 160 48Z" fill="#D9D9D9" fill-opacity="0.5"/>
<path d="M327 48H167C165.895 48 165 48.8954 165 50V53C165 54.1046 165.895 55 167 55H327C328.105 55 329 54.1046 329 53V50C329 48.8954 328.105 48 327 48Z" fill="#D9D9D9" fill-opacity="0.5"/>
<path d="M149 59H52C50.8954 59 50 59.8954 50 61V64C50 65.1046 50.8954 66 52 66H149C150.105 66 151 65.1046 151 64V61C151 59.8954 150.105 59 149 59Z" fill="#D9D9D9" fill-opacity="0.5"/>
<path d="M252 59H155C153.895 59 153 59.8954 153 61V64C153 65.1046 153.895 66 155 66H252C253.105 66 254 65.1046 254 64V61C254 59.8954 253.105 59 252 59Z" fill="#D9D9D9" fill-opacity="0.5"/>
<path d="M175.5 16H116.5C111.806 16 108 19.8056 108 24.5C108 29.1944 111.806 33 116.5 33H175.5C180.194 33 184 29.1944 184 24.5C184 19.8056 180.194 16 175.5 16Z" fill="#D9D9D9" fill-opacity="0.5"/>
<path d="M281.5 16H196.5C191.806 16 188 19.8056 188 24.5C188 29.1944 191.806 33 196.5 33H281.5C286.194 33 290 29.1944 290 24.5C290 19.8056 286.194 16 281.5 16Z" fill="#D9D9D9" fill-opacity="0.5"/>
<g filter="url(#filter2_i_4_153)">
<path d="M34.5804 17.7054C35.1384 18.2634 35.1384 19.1652 34.5804 19.7232L23.1518 31.1518C22.5938 31.7098 21.692 31.7098 21.1339 31.1518L15.4184 25.4375C14.8605 24.8795 14.8605 23.9777 15.4184 23.4196C15.9763 22.8616 16.8808 22.8616 17.4388 23.4196L22.1027 28.1205L32.5625 17.7054C33.1205 17.1464 34.0223 17.1464 34.5804 17.7054Z" fill="url(#paint1_linear_4_153)"/>
</g>
<g filter="url(#filter3_i_4_153)">
<path d="M220 53H55C52.2386 53 50 55.2386 50 58V214C50 216.761 52.2386 219 55 219H220C222.761 219 225 216.761 225 214V58C225 55.2386 222.761 53 220 53Z" fill="white"/>
<path d="M220 53.5H55C52.5147 53.5 50.5 55.5147 50.5 58V214C50.5 216.485 52.5147 218.5 55 218.5H220C222.485 218.5 224.5 216.485 224.5 214V58C224.5 55.5147 222.485 53.5 220 53.5Z" stroke="black"/>
<path d="M220 53.5H55C52.5147 53.5 50.5 55.5147 50.5 58V214C50.5 216.485 52.5147 218.5 55 218.5H220C222.485 218.5 224.5 216.485 224.5 214V58C224.5 55.5147 222.485 53.5 220 53.5Z" stroke="black" stroke-opacity="0.2"/>
</g>
<path d="M138.5 104H62.5C60.567 104 59 105.567 59 107.5C59 109.433 60.567 111 62.5 111H138.5C140.433 111 142 109.433 142 107.5C142 105.567 140.433 104 138.5 104Z" fill="black" fill-opacity="0.15"/>
<path d="M119.5 152H62.5C60.567 152 59 153.567 59 155.5C59 157.433 60.567 159 62.5 159H119.5C121.433 159 123 157.433 123 155.5C123 153.567 121.433 152 119.5 152Z" fill="black" fill-opacity="0.15"/>
<path d="M106.5 180H62.5C60.567 180 59 181.567 59 183.5C59 185.433 60.567 187 62.5 187H106.5C108.433 187 110 185.433 110 183.5C110 181.567 108.433 180 106.5 180Z" fill="black" fill-opacity="0.15"/>
<path d="M149.5 170H62.5C60.567 170 59 171.567 59 173.5C59 175.433 60.567 177 62.5 177H149.5C151.433 177 153 175.433 153 173.5C153 171.567 151.433 170 149.5 170Z" fill="black" fill-opacity="0.15"/>
<path d="M133.5 161H62.5C60.567 161 59 162.567 59 164.5C59 166.433 60.567 168 62.5 168H133.5C135.433 168 137 166.433 137 164.5C137 162.567 135.433 161 133.5 161Z" fill="black" fill-opacity="0.15"/>
<path d="M211.5 113H197.5C195.567 113 194 114.567 194 116.5C194 118.433 195.567 120 197.5 120H211.5C213.433 120 215 118.433 215 116.5C215 114.567 213.433 113 211.5 113Z" fill="black" fill-opacity="0.15"/>
<path d="M138.5 122H62.5C60.567 122 59 123.567 59 125.5C59 127.433 60.567 129 62.5 129H138.5C140.433 129 142 127.433 142 125.5C142 123.567 140.433 122 138.5 122Z" fill="black" fill-opacity="0.15"/>
<path d="M100.5 113H62.5C60.567 113 59 114.567 59 116.5C59 118.433 60.567 120 62.5 120H100.5C102.433 120 104 118.433 104 116.5C104 114.567 102.433 113 100.5 113Z" fill="black" fill-opacity="0.15"/>
<path d="M211.5 104H149.5C147.567 104 146 105.567 146 107.5C146 109.433 147.567 111 149.5 111H211.5C213.433 111 215 109.433 215 107.5C215 105.567 213.433 104 211.5 104Z" fill="black" fill-opacity="0.15"/>
<path d="M187.5 113H111.5C109.567 113 108 114.567 108 116.5C108 118.433 109.567 120 111.5 120H187.5C189.433 120 191 118.433 191 116.5C191 114.567 189.433 113 187.5 113Z" fill="black" fill-opacity="0.15"/>
<path d="M50 58C50 55.2386 52.2386 53 55 53H220C222.761 53 225 55.2386 225 58V94H50V58Z" fill="#111827"/>
<g filter="url(#filter4_i_4_153)">
<path d="M214.791 62.2096C215.07 62.4886 215.07 62.9396 214.791 63.2186L209.076 68.9332C208.797 69.2122 208.346 69.2122 208.067 68.9332L205.209 66.0759C204.93 65.7969 204.93 65.3459 205.209 65.0669C205.488 64.7879 205.94 64.7879 206.219 65.0669L208.552 67.4175L213.782 62.2096C214.061 61.9301 214.512 61.9301 214.791 62.2096Z" fill="#00FF59"/>
</g>
<path d="M153 62H63C60.7909 62 59 63.7909 59 66C59 68.2091 60.7909 70 63 70H153C155.209 70 157 68.2091 157 66C157 63.7909 155.209 62 153 62Z" fill="#D9D9D9" fill-opacity="0.25"/>
<path d="M112 76H61C59.8954 76 59 76.8954 59 78C59 79.1046 59.8954 80 61 80H112C113.105 80 114 79.1046 114 78C114 76.8954 113.105 76 112 76Z" fill="#D9D9D9" fill-opacity="0.25"/>
<path d="M118 82H61C59.8954 82 59 82.8954 59 84C59 85.1046 59.8954 86 61 86H118C119.105 86 120 85.1046 120 84C120 82.8954 119.105 82 118 82Z" fill="#D9D9D9" fill-opacity="0.25"/>
<g filter="url(#filter5_i_4_153)">
<path d="M67 66H17C14.2386 66 12 68.2386 12 71V121C12 123.761 14.2386 126 17 126H67C69.7614 126 72 123.761 72 121V71C72 68.2386 69.7614 66 67 66Z" fill="url(#paint2_linear_4_153)"/>
</g>
<path d="M48.9828 83.2881V89.6441H55.4483L48.9828 83.2881ZM47.3664 89.6441V83.2881H38.4763C37.1377 83.2881 36.0517 84.3552 36.0517 85.6716V97.589H44.8458L42.8744 95.6509C42.4008 95.1854 42.4008 94.4314 42.8744 93.9656C43.3479 93.4998 44.1149 93.5001 44.5887 93.9656L48.6297 97.9381C49.1032 98.4036 49.1032 99.1576 48.6297 99.6234L44.5887 103.596C44.1152 104.061 43.3482 104.061 42.8744 103.596C42.6334 103.364 42.5172 103.061 42.5172 102.753C42.5172 102.445 42.6356 102.143 42.8724 101.911L44.8458 99.9725H36.0517V106.328C36.0517 107.644 37.1377 108.712 38.4763 108.712H53.0237C54.3628 108.712 55.4483 107.645 55.4483 106.328V91.2331H49.0282C48.0887 91.2331 47.3664 90.523 47.3664 89.6441ZM30.7985 97.589C30.1292 97.589 29.5862 98.1203 29.5862 98.7807C29.5862 99.4387 30.1292 99.9725 30.7985 99.9725H36.0517V97.589H30.7985Z" fill="white"/>
<g filter="url(#filter6_i_4_153)">
<path d="M291 185H115C112.239 185 110 187.239 110 190V203C110 205.761 112.239 208 115 208H291C293.761 208 296 205.761 296 203V190C296 187.239 293.761 185 291 185Z" fill="#293A5E"/>
</g>
<path d="M123.44 193.02V194.15H121.58V200H120.18V194.15H118.32V193.02H123.44ZM129.691 194.46V200H128.281V199.3C128.101 199.54 127.865 199.73 127.571 199.87C127.285 200.003 126.971 200.07 126.631 200.07C126.198 200.07 125.815 199.98 125.481 199.8C125.148 199.613 124.885 199.343 124.691 198.99C124.505 198.63 124.411 198.203 124.411 197.71V194.46H125.811V197.51C125.811 197.95 125.921 198.29 126.141 198.53C126.361 198.763 126.661 198.88 127.041 198.88C127.428 198.88 127.731 198.763 127.951 198.53C128.171 198.29 128.281 197.95 128.281 197.51V194.46H129.691ZM136.223 197.11C136.223 197.31 136.209 197.49 136.183 197.65H132.133C132.166 198.05 132.306 198.363 132.553 198.59C132.799 198.817 133.103 198.93 133.463 198.93C133.983 198.93 134.353 198.707 134.573 198.26H136.083C135.923 198.793 135.616 199.233 135.163 199.58C134.709 199.92 134.153 200.09 133.493 200.09C132.959 200.09 132.479 199.973 132.053 199.74C131.633 199.5 131.303 199.163 131.063 198.73C130.829 198.297 130.713 197.797 130.713 197.23C130.713 196.657 130.829 196.153 131.063 195.72C131.296 195.287 131.623 194.953 132.043 194.72C132.463 194.487 132.946 194.37 133.493 194.37C134.019 194.37 134.489 194.483 134.903 194.71C135.323 194.937 135.646 195.26 135.873 195.68C136.106 196.093 136.223 196.57 136.223 197.11ZM134.773 196.71C134.766 196.35 134.636 196.063 134.383 195.85C134.129 195.63 133.819 195.52 133.453 195.52C133.106 195.52 132.813 195.627 132.573 195.84C132.339 196.047 132.196 196.337 132.143 196.71H134.773ZM139.365 200.09C138.911 200.09 138.505 200.01 138.145 199.85C137.785 199.683 137.498 199.46 137.285 199.18C137.078 198.9 136.965 198.59 136.945 198.25H138.355C138.381 198.463 138.485 198.64 138.665 198.78C138.851 198.92 139.081 198.99 139.355 198.99C139.621 198.99 139.828 198.937 139.975 198.83C140.128 198.723 140.205 198.587 140.205 198.42C140.205 198.24 140.111 198.107 139.925 198.02C139.745 197.927 139.455 197.827 139.055 197.72C138.641 197.62 138.301 197.517 138.035 197.41C137.775 197.303 137.548 197.14 137.355 196.92C137.168 196.7 137.075 196.403 137.075 196.03C137.075 195.723 137.161 195.443 137.335 195.19C137.515 194.937 137.768 194.737 138.095 194.59C138.428 194.443 138.818 194.37 139.265 194.37C139.925 194.37 140.451 194.537 140.845 194.87C141.238 195.197 141.455 195.64 141.495 196.2H140.155C140.135 195.98 140.041 195.807 139.875 195.68C139.715 195.547 139.498 195.48 139.225 195.48C138.971 195.48 138.775 195.527 138.635 195.62C138.501 195.713 138.435 195.843 138.435 196.01C138.435 196.197 138.528 196.34 138.715 196.44C138.901 196.533 139.191 196.63 139.585 196.73C139.985 196.83 140.315 196.933 140.575 197.04C140.835 197.147 141.058 197.313 141.245 197.54C141.438 197.76 141.538 198.053 141.545 198.42C141.545 198.74 141.455 199.027 141.275 199.28C141.101 199.533 140.848 199.733 140.515 199.88C140.188 200.02 139.805 200.09 139.365 200.09ZM142.334 197.21C142.334 196.65 142.444 196.153 142.664 195.72C142.891 195.287 143.197 194.953 143.584 194.72C143.971 194.487 144.401 194.37 144.874 194.37C145.234 194.37 145.577 194.45 145.904 194.61C146.231 194.763 146.491 194.97 146.684 195.23V192.6H148.104V200H146.684V199.18C146.511 199.453 146.267 199.673 145.954 199.84C145.641 200.007 145.277 200.09 144.864 200.09C144.397 200.09 143.971 199.97 143.584 199.73C143.197 199.49 142.891 199.153 142.664 198.72C142.444 198.28 142.334 197.777 142.334 197.21ZM146.694 197.23C146.694 196.89 146.627 196.6 146.494 196.36C146.361 196.113 146.181 195.927 145.954 195.8C145.727 195.667 145.484 195.6 145.224 195.6C144.964 195.6 144.724 195.663 144.504 195.79C144.284 195.917 144.104 196.103 143.964 196.35C143.831 196.59 143.764 196.877 143.764 197.21C143.764 197.543 143.831 197.837 143.964 198.09C144.104 198.337 144.284 198.527 144.504 198.66C144.731 198.793 144.971 198.86 145.224 198.86C145.484 198.86 145.727 198.797 145.954 198.67C146.181 198.537 146.361 198.35 146.494 198.11C146.627 197.863 146.694 197.57 146.694 197.23ZM149.111 197.21C149.111 196.65 149.221 196.153 149.441 195.72C149.668 195.287 149.971 194.953 150.351 194.72C150.738 194.487 151.168 194.37 151.641 194.37C152.055 194.37 152.415 194.453 152.721 194.62C153.035 194.787 153.285 194.997 153.471 195.25V194.46H154.881V200H153.471V199.19C153.291 199.45 153.041 199.667 152.721 199.84C152.408 200.007 152.045 200.09 151.631 200.09C151.165 200.09 150.738 199.97 150.351 199.73C149.971 199.49 149.668 199.153 149.441 198.72C149.221 198.28 149.111 197.777 149.111 197.21ZM153.471 197.23C153.471 196.89 153.405 196.6 153.271 196.36C153.138 196.113 152.958 195.927 152.731 195.8C152.505 195.667 152.261 195.6 152.001 195.6C151.741 195.6 151.501 195.663 151.281 195.79C151.061 195.917 150.881 196.103 150.741 196.35C150.608 196.59 150.541 196.877 150.541 197.21C150.541 197.543 150.608 197.837 150.741 198.09C150.881 198.337 151.061 198.527 151.281 198.66C151.508 198.793 151.748 198.86 152.001 198.86C152.261 198.86 152.505 198.797 152.731 198.67C152.958 198.537 153.138 198.35 153.271 198.11C153.405 197.863 153.471 197.57 153.471 197.23ZM161.549 194.46L158.119 202.62H156.629L157.829 199.86L155.609 194.46H157.179L158.609 198.33L160.059 194.46H161.549ZM162.583 193.02H164.053L162.973 195.54H162.013L162.583 193.02ZM167.177 200.09C166.724 200.09 166.317 200.01 165.957 199.85C165.597 199.683 165.311 199.46 165.097 199.18C164.891 198.9 164.777 198.59 164.757 198.25H166.167C166.194 198.463 166.297 198.64 166.477 198.78C166.664 198.92 166.894 198.99 167.167 198.99C167.434 198.99 167.641 198.937 167.787 198.83C167.941 198.723 168.017 198.587 168.017 198.42C168.017 198.24 167.924 198.107 167.737 198.02C167.557 197.927 167.267 197.827 166.867 197.72C166.454 197.62 166.114 197.517 165.847 197.41C165.587 197.303 165.361 197.14 165.167 196.92C164.981 196.7 164.887 196.403 164.887 196.03C164.887 195.723 164.974 195.443 165.147 195.19C165.327 194.937 165.581 194.737 165.907 194.59C166.241 194.443 166.631 194.37 167.077 194.37C167.737 194.37 168.264 194.537 168.657 194.87C169.051 195.197 169.267 195.64 169.307 196.2H167.967C167.947 195.98 167.854 195.807 167.687 195.68C167.527 195.547 167.311 195.48 167.037 195.48C166.784 195.48 166.587 195.527 166.447 195.62C166.314 195.713 166.247 195.843 166.247 196.01C166.247 196.197 166.341 196.34 166.527 196.44C166.714 196.533 167.004 196.63 167.397 196.73C167.797 196.83 168.127 196.933 168.387 197.04C168.647 197.147 168.871 197.313 169.057 197.54C169.251 197.76 169.351 198.053 169.357 198.42C169.357 198.74 169.267 199.027 169.087 199.28C168.914 199.533 168.661 199.733 168.327 199.88C168.001 200.02 167.617 200.09 167.177 200.09ZM175.299 200.07C174.813 200.07 174.373 199.987 173.979 199.82C173.593 199.653 173.286 199.413 173.059 199.1C172.833 198.787 172.716 198.417 172.709 197.99H174.209C174.229 198.277 174.329 198.503 174.509 198.67C174.696 198.837 174.949 198.92 175.269 198.92C175.596 198.92 175.853 198.843 176.039 198.69C176.226 198.53 176.319 198.323 176.319 198.07C176.319 197.863 176.256 197.693 176.129 197.56C176.003 197.427 175.843 197.323 175.649 197.25C175.463 197.17 175.203 197.083 174.869 196.99C174.416 196.857 174.046 196.727 173.759 196.6C173.479 196.467 173.236 196.27 173.029 196.01C172.829 195.743 172.729 195.39 172.729 194.95C172.729 194.537 172.833 194.177 173.039 193.87C173.246 193.563 173.536 193.33 173.909 193.17C174.283 193.003 174.709 192.92 175.189 192.92C175.909 192.92 176.493 193.097 176.939 193.45C177.393 193.797 177.643 194.283 177.689 194.91H176.149C176.136 194.67 176.033 194.473 175.839 194.32C175.653 194.16 175.403 194.08 175.089 194.08C174.816 194.08 174.596 194.15 174.429 194.29C174.269 194.43 174.189 194.633 174.189 194.9C174.189 195.087 174.249 195.243 174.369 195.37C174.496 195.49 174.649 195.59 174.829 195.67C175.016 195.743 175.276 195.83 175.609 195.93C176.063 196.063 176.433 196.197 176.719 196.33C177.006 196.463 177.253 196.663 177.459 196.93C177.666 197.197 177.769 197.547 177.769 197.98C177.769 198.353 177.673 198.7 177.479 199.02C177.286 199.34 177.003 199.597 176.629 199.79C176.256 199.977 175.813 200.07 175.299 200.07ZM178.623 197.23C178.623 196.657 178.74 196.157 178.973 195.73C179.206 195.297 179.53 194.963 179.943 194.73C180.356 194.49 180.83 194.37 181.363 194.37C182.05 194.37 182.616 194.543 183.063 194.89C183.516 195.23 183.82 195.71 183.973 196.33H182.463C182.383 196.09 182.246 195.903 182.053 195.77C181.866 195.63 181.633 195.56 181.353 195.56C180.953 195.56 180.636 195.707 180.403 196C180.17 196.287 180.053 196.697 180.053 197.23C180.053 197.757 180.17 198.167 180.403 198.46C180.636 198.747 180.953 198.89 181.353 198.89C181.92 198.89 182.29 198.637 182.463 198.13H183.973C183.82 198.73 183.516 199.207 183.063 199.56C182.61 199.913 182.043 200.09 181.363 200.09C180.83 200.09 180.356 199.973 179.943 199.74C179.53 199.5 179.206 199.167 178.973 198.74C178.74 198.307 178.623 197.803 178.623 197.23ZM188.119 194.38C188.539 194.38 188.912 194.473 189.239 194.66C189.565 194.84 189.819 195.11 189.999 195.47C190.185 195.823 190.279 196.25 190.279 196.75V200H188.879V196.94C188.879 196.5 188.769 196.163 188.549 195.93C188.329 195.69 188.029 195.57 187.649 195.57C187.262 195.57 186.955 195.69 186.729 195.93C186.509 196.163 186.399 196.5 186.399 196.94V200H184.999V192.6H186.399V195.15C186.579 194.91 186.819 194.723 187.119 194.59C187.419 194.45 187.752 194.38 188.119 194.38ZM196.76 197.11C196.76 197.31 196.747 197.49 196.72 197.65H192.67C192.703 198.05 192.843 198.363 193.09 198.59C193.337 198.817 193.64 198.93 194 198.93C194.52 198.93 194.89 198.707 195.11 198.26H196.62C196.46 198.793 196.153 199.233 195.7 199.58C195.247 199.92 194.69 200.09 194.03 200.09C193.497 200.09 193.017 199.973 192.59 199.74C192.17 199.5 191.84 199.163 191.6 198.73C191.367 198.297 191.25 197.797 191.25 197.23C191.25 196.657 191.367 196.153 191.6 195.72C191.833 195.287 192.16 194.953 192.58 194.72C193 194.487 193.483 194.37 194.03 194.37C194.557 194.37 195.027 194.483 195.44 194.71C195.86 194.937 196.183 195.26 196.41 195.68C196.643 196.093 196.76 196.57 196.76 197.11ZM195.31 196.71C195.303 196.35 195.173 196.063 194.92 195.85C194.667 195.63 194.357 195.52 193.99 195.52C193.643 195.52 193.35 195.627 193.11 195.84C192.877 196.047 192.733 196.337 192.68 196.71H195.31ZM197.422 197.21C197.422 196.65 197.532 196.153 197.752 195.72C197.978 195.287 198.285 194.953 198.672 194.72C199.058 194.487 199.488 194.37 199.962 194.37C200.322 194.37 200.665 194.45 200.992 194.61C201.318 194.763 201.578 194.97 201.772 195.23V192.6H203.192V200H201.772V199.18C201.598 199.453 201.355 199.673 201.042 199.84C200.728 200.007 200.365 200.09 199.952 200.09C199.485 200.09 199.058 199.97 198.672 199.73C198.285 199.49 197.978 199.153 197.752 198.72C197.532 198.28 197.422 197.777 197.422 197.21ZM201.782 197.23C201.782 196.89 201.715 196.6 201.582 196.36C201.448 196.113 201.268 195.927 201.042 195.8C200.815 195.667 200.572 195.6 200.312 195.6C200.052 195.6 199.812 195.663 199.592 195.79C199.372 195.917 199.192 196.103 199.052 196.35C198.918 196.59 198.852 196.877 198.852 197.21C198.852 197.543 198.918 197.837 199.052 198.09C199.192 198.337 199.372 198.527 199.592 198.66C199.818 198.793 200.058 198.86 200.312 198.86C200.572 198.86 200.815 198.797 201.042 198.67C201.268 198.537 201.448 198.35 201.582 198.11C201.715 197.863 201.782 197.57 201.782 197.23ZM209.789 194.46V200H208.379V199.3C208.199 199.54 207.962 199.73 207.669 199.87C207.382 200.003 207.069 200.07 206.729 200.07C206.296 200.07 205.912 199.98 205.579 199.8C205.246 199.613 204.982 199.343 204.789 198.99C204.602 198.63 204.509 198.203 204.509 197.71V194.46H205.909V197.51C205.909 197.95 206.019 198.29 206.239 198.53C206.459 198.763 206.759 198.88 207.139 198.88C207.526 198.88 207.829 198.763 208.049 198.53C208.269 198.29 208.379 197.95 208.379 197.51V194.46H209.789ZM212.57 192.6V200H211.17V192.6H212.57ZM219.104 197.11C219.104 197.31 219.09 197.49 219.064 197.65H215.014C215.047 198.05 215.187 198.363 215.434 198.59C215.68 198.817 215.984 198.93 216.344 198.93C216.864 198.93 217.234 198.707 217.454 198.26H218.964C218.804 198.793 218.497 199.233 218.044 199.58C217.59 199.92 217.034 200.09 216.374 200.09C215.84 200.09 215.36 199.973 214.934 199.74C214.514 199.5 214.184 199.163 213.944 198.73C213.71 198.297 213.594 197.797 213.594 197.23C213.594 196.657 213.71 196.153 213.944 195.72C214.177 195.287 214.504 194.953 214.924 194.72C215.344 194.487 215.827 194.37 216.374 194.37C216.9 194.37 217.37 194.483 217.784 194.71C218.204 194.937 218.527 195.26 218.754 195.68C218.987 196.093 219.104 196.57 219.104 197.11ZM217.654 196.71C217.647 196.35 217.517 196.063 217.264 195.85C217.01 195.63 216.7 195.52 216.334 195.52C215.987 195.52 215.694 195.627 215.454 195.84C215.22 196.047 215.077 196.337 215.024 196.71H217.654Z" fill="white"/>
<path d="M287.771 199.666L285.434 197.328C285.965 196.539 286.228 195.553 286.087 194.502C285.848 192.715 284.383 191.26 282.594 191.034C279.934 190.697 277.697 192.934 278.034 195.594C278.26 197.384 279.715 198.85 281.502 199.088C282.553 199.228 283.54 198.966 284.329 198.434L286.666 200.772C286.972 201.077 287.466 201.077 287.771 200.772C288.076 200.467 288.076 199.971 287.771 199.666ZM279.545 195.062C279.545 193.684 280.666 192.562 282.045 192.562C283.423 192.562 284.545 193.684 284.545 195.062C284.545 196.441 283.423 197.562 282.045 197.562C280.666 197.562 279.545 196.441 279.545 195.062Z" fill="white"/>
<g filter="url(#filter7_i_4_153)">
<path d="M286 100H245C243.895 100 243 100.895 243 102V143C243 144.105 243.895 145 245 145H286C287.105 145 288 144.105 288 143V102C288 100.895 287.105 100 286 100Z" fill="url(#paint3_linear_4_153)"/>
<path d="M257.52 121.66C258.16 121.593 258.647 121.4 258.98 121.08C259.327 120.76 259.5 120.34 259.5 119.82C259.5 119.34 259.447 118.46 259.34 117.18C259.22 115.98 259.16 115.02 259.16 114.3C259.16 113.353 259.433 112.613 259.98 112.08C260.54 111.547 261.273 111.28 262.18 111.28H263.52V113.26H262.64C262.213 113.26 261.893 113.36 261.68 113.56C261.48 113.747 261.38 114.053 261.38 114.48C261.38 114.8 261.4 115.227 261.44 115.76C261.48 116.293 261.507 116.673 261.52 116.9C261.64 118.127 261.7 119.127 261.7 119.9C261.7 120.58 261.527 121.147 261.18 121.6C260.847 122.053 260.327 122.353 259.62 122.5V122.54C260.327 122.687 260.847 122.987 261.18 123.44C261.527 123.893 261.7 124.46 261.7 125.14C261.7 125.913 261.64 126.913 261.52 128.14C261.507 128.367 261.48 128.747 261.44 129.28C261.4 129.813 261.38 130.24 261.38 130.56C261.38 130.987 261.48 131.293 261.68 131.48C261.893 131.68 262.213 131.78 262.64 131.78H263.52V133.76H262.18C261.273 133.76 260.54 133.493 259.98 132.96C259.433 132.427 259.16 131.687 259.16 130.74C259.16 130.02 259.22 129.06 259.34 127.86C259.447 126.58 259.5 125.7 259.5 125.22C259.5 124.7 259.327 124.28 258.98 123.96C258.647 123.64 258.16 123.447 257.52 123.38V121.66ZM273.113 123.38C272.473 123.447 271.979 123.64 271.633 123.96C271.299 124.28 271.133 124.7 271.133 125.22C271.133 125.7 271.186 126.58 271.293 127.86C271.413 129.06 271.473 130.02 271.473 130.74C271.473 131.687 271.193 132.427 270.633 132.96C270.086 133.493 269.359 133.76 268.453 133.76H267.113V131.78H267.993C268.419 131.78 268.733 131.68 268.933 131.48C269.146 131.293 269.253 130.987 269.253 130.56C269.253 130.24 269.233 129.813 269.193 129.28C269.153 128.747 269.126 128.367 269.113 128.14C268.993 126.913 268.933 125.913 268.933 125.14C268.933 124.46 269.099 123.893 269.433 123.44C269.779 122.987 270.306 122.687 271.013 122.54V122.5C270.306 122.353 269.779 122.053 269.433 121.6C269.099 121.147 268.933 120.58 268.933 119.9C268.933 119.127 268.993 118.127 269.113 116.9C269.126 116.673 269.153 116.293 269.193 115.76C269.233 115.227 269.253 114.8 269.253 114.48C269.253 114.053 269.146 113.747 268.933 113.56C268.733 113.36 268.419 113.26 267.993 113.26H267.113V111.28H268.453C269.359 111.28 270.086 111.547 270.633 112.08C271.193 112.613 271.473 113.353 271.473 114.3C271.473 115.02 271.413 115.98 271.293 117.18C271.186 118.46 271.133 119.34 271.133 119.82C271.133 120.34 271.299 120.76 271.633 121.08C271.979 121.4 272.473 121.593 273.113 121.66V123.38Z" fill="url(#paint4_linear_4_153)"/>
</g>
<defs>
<filter id="filter0_i_4_153" x="4" y="2" width="343" height="82" filterUnits="userSpaceOnUse" color-interpolation-filters="sRGB">
<feFlood flood-opacity="0" result="BackgroundImageFix"/>
<feBlend mode="normal" in="SourceGraphic" in2="BackgroundImageFix" result="shape"/>
<feColorMatrix in="SourceAlpha" type="matrix" values="0 0 0 0 0 0 0 0 0 0 0 0 0 0 0 0 0 0 127 0" result="hardAlpha"/>
<feOffset dy="2"/>
<feGaussianBlur stdDeviation="1.92"/>
<feComposite in2="hardAlpha" operator="arithmetic" k2="-1" k3="1"/>
<feColorMatrix type="matrix" values="0 0 0 0 0.501961 0 0 0 0 0.501961 0 0 0 0 0.501961 0 0 0 0.25 0"/>
<feBlend mode="normal" in2="shape" result="effect1_innerShadow_4_153"/>
</filter>
<filter id="filter1_i_4_153" x="15" y="39" width="20" height="20" filterUnits="userSpaceOnUse" color-interpolation-filters="sRGB">
<feFlood flood-opacity="0" result="BackgroundImageFix"/>
<feBlend mode="normal" in="SourceGraphic" in2="BackgroundImageFix" result="shape"/>
<feColorMatrix in="SourceAlpha" type="matrix" values="0 0 0 0 0 0 0 0 0 0 0 0 0 0 0 0 0 0 127 0" result="hardAlpha"/>
<feOffset/>
<feGaussianBlur stdDeviation="1.5"/>
<feComposite in2="hardAlpha" operator="arithmetic" k2="-1" k3="1"/>
<feColorMatrix type="matrix" values="0 0 0 0 1 0 0 0 0 0.66 0 0 0 0 0 0 0 0 1 0"/>
<feBlend mode="normal" in2="shape" result="effect1_innerShadow_4_153"/>
</filter>
<filter id="filter2_i_4_153" x="15" y="17.2862" width="19.9989" height="14.2841" filterUnits="userSpaceOnUse" color-interpolation-filters="sRGB">
<feFlood flood-opacity="0" result="BackgroundImageFix"/>
<feBlend mode="normal" in="SourceGraphic" in2="BackgroundImageFix" result="shape"/>
<feColorMatrix in="SourceAlpha" type="matrix" values="0 0 0 0 0 0 0 0 0 0 0 0 0 0 0 0 0 0 127 0" result="hardAlpha"/>
<feOffset/>
<feGaussianBlur stdDeviation="1.5"/>
<feComposite in2="hardAlpha" operator="arithmetic" k2="-1" k3="1"/>
<feColorMatrix type="matrix" values="0 0 0 0 0 0 0 0 0 1 0 0 0 0 0.58 0 0 0 1 0"/>
<feBlend mode="normal" in2="shape" result="effect1_innerShadow_4_153"/>
</filter>
<filter id="filter3_i_4_153" x="50" y="53" width="175" height="168" filterUnits="userSpaceOnUse" color-interpolation-filters="sRGB">
<feFlood flood-opacity="0" result="BackgroundImageFix"/>
<feBlend mode="normal" in="SourceGraphic" in2="BackgroundImageFix" result="shape"/>
<feColorMatrix in="SourceAlpha" type="matrix" values="0 0 0 0 0 0 0 0 0 0 0 0 0 0 0 0 0 0 127 0" result="hardAlpha"/>
<feOffset dy="2"/>
<feGaussianBlur stdDeviation="2"/>
<feComposite in2="hardAlpha" operator="arithmetic" k2="-1" k3="1"/>
<feColorMatrix type="matrix" values="0 0 0 0 0 0 0 0 0 0 0 0 0 0 0 0 0 0 0.25 0"/>
<feBlend mode="normal" in2="shape" result="effect1_innerShadow_4_153"/>
</filter>
<filter id="filter4_i_4_153" x="205" y="62" width="10.0005" height="7.14249" filterUnits="userSpaceOnUse" color-interpolation-filters="sRGB">
<feFlood flood-opacity="0" result="BackgroundImageFix"/>
<feBlend mode="normal" in="SourceGraphic" in2="BackgroundImageFix" result="shape"/>
<feColorMatrix in="SourceAlpha" type="matrix" values="0 0 0 0 0 0 0 0 0 0 0 0 0 0 0 0 0 0 127 0" result="hardAlpha"/>
<feOffset/>
<feGaussianBlur stdDeviation="1.5"/>
<feComposite in2="hardAlpha" operator="arithmetic" k2="-1" k3="1"/>
<feColorMatrix type="matrix" values="0 0 0 0 0 0 0 0 0 1 0 0 0 0 0.58 0 0 0 1 0"/>
<feBlend mode="normal" in2="shape" result="effect1_innerShadow_4_153"/>
</filter>
<filter id="filter5_i_4_153" x="12" y="66" width="60" height="60" filterUnits="userSpaceOnUse" color-interpolation-filters="sRGB">
<feFlood flood-opacity="0" result="BackgroundImageFix"/>
<feBlend mode="normal" in="SourceGraphic" in2="BackgroundImageFix" result="shape"/>
<feColorMatrix in="SourceAlpha" type="matrix" values="0 0 0 0 0 0 0 0 0 0 0 0 0 0 0 0 0 0 127 0" result="hardAlpha"/>
<feOffset/>
<feGaussianBlur stdDeviation="2"/>
<feComposite in2="hardAlpha" operator="arithmetic" k2="-1" k3="1"/>
<feColorMatrix type="matrix" values="0 0 0 0 0.26 0 0 0 0 0 0 0 0 0 1 0 0 0 0.5 0"/>
<feBlend mode="normal" in2="shape" result="effect1_innerShadow_4_153"/>
</filter>
<filter id="filter6_i_4_153" x="110" y="185" width="186" height="25" filterUnits="userSpaceOnUse" color-interpolation-filters="sRGB">
<feFlood flood-opacity="0" result="BackgroundImageFix"/>
<feBlend mode="normal" in="SourceGraphic" in2="BackgroundImageFix" result="shape"/>
<feColorMatrix in="SourceAlpha" type="matrix" values="0 0 0 0 0 0 0 0 0 0 0 0 0 0 0 0 0 0 127 0" result="hardAlpha"/>
<feOffset dy="2"/>
<feGaussianBlur stdDeviation="2"/>
<feComposite in2="hardAlpha" operator="arithmetic" k2="-1" k3="1"/>
<feColorMatrix type="matrix" values="0 0 0 0 0 0 0 0 0 0 0 0 0 0 0 0 0 0 0.25 0"/>
<feBlend mode="normal" in2="shape" result="effect1_innerShadow_4_153"/>
</filter>
<filter id="filter7_i_4_153" x="243" y="100" width="45" height="45" filterUnits="userSpaceOnUse" color-interpolation-filters="sRGB">
<feFlood flood-opacity="0" result="BackgroundImageFix"/>
<feBlend mode="normal" in="SourceGraphic" in2="BackgroundImageFix" result="shape"/>
<feColorMatrix in="SourceAlpha" type="matrix" values="0 0 0 0 0 0 0 0 0 0 0 0 0 0 0 0 0 0 127 0" result="hardAlpha"/>
<feOffset/>
<feGaussianBlur stdDeviation="5"/>
<feComposite in2="hardAlpha" operator="arithmetic" k2="-1" k3="1"/>
<feColorMatrix type="matrix" values="0 0 0 0 0.161944 0 0 0 0 0.227083 0 0 0 0 0.366667 0 0 0 0.5 0"/>
<feBlend mode="normal" in2="shape" result="effect1_innerShadow_4_153"/>
</filter>
<linearGradient id="paint0_linear_4_153" x1="15" y1="39" x2="35" y2="59" gradientUnits="userSpaceOnUse">
<stop stop-color="#FFA800"/>
<stop offset="1" stop-color="#FF0C00"/>
</linearGradient>
<linearGradient id="paint1_linear_4_153" x1="24.9994" y1="17.2862" x2="24.9994" y2="31.5703" gradientUnits="userSpaceOnUse">
<stop stop-color="#00FF59"/>
<stop offset="1" stop-color="#00D8E6"/>
</linearGradient>
<linearGradient id="paint2_linear_4_153" x1="12" y1="66" x2="70.9572" y2="127.008" gradientUnits="userSpaceOnUse">
<stop stop-color="#00C2FF"/>
<stop offset="1" stop-color="#0047FF"/>
</linearGradient>
<linearGradient id="paint3_linear_4_153" x1="243" y1="100" x2="288" y2="145" gradientUnits="userSpaceOnUse">
<stop stop-color="#293A5E"/>
<stop offset="1" stop-color="#111827"/>
</linearGradient>
<linearGradient id="paint4_linear_4_153" x1="265.5" y1="108" x2="265.5" y2="138" gradientUnits="userSpaceOnUse">
<stop stop-color="#00FF94"/>
<stop offset="1" stop-color="#00FF94" stop-opacity="0"/>
</linearGradient>
</defs>
</svg>
