
<svg width="351" height="361" viewBox="0 0 351 361" fill="none" xmlns="http://www.w3.org/2000/svg">
<g filter="url(#filter0_d_2_2)">
<rect x="4" y="2" width="343" height="80" rx="5" fill="white"/>
</g>
<circle cx="25.5" cy="24.5" r="12.5" fill="#CCCCCC" fill-opacity="0.25"/>
<path d="M15 51C15 48.2386 17.2386 46 20 46H30C32.7614 46 35 48.2386 35 51V61C35 63.7614 32.7614 66 30 66H20C17.2386 66 15 63.7614 15 61V51Z" fill="#DC2626" fill-opacity="0.12"/>
<rect x="50" y="16" width="78" height="17" rx="8.5" fill="#D9D9D9" fill-opacity="0.5"/>
<rect x="50" y="48" width="112" height="7" rx="2" fill="#D9D9D9" fill-opacity="0.5"/>
<rect x="165" y="48" width="164" height="7" rx="2" fill="#D9D9D9" fill-opacity="0.5"/>
<rect x="50" y="59" width="164" height="7" rx="2" fill="#D9D9D9" fill-opacity="0.5"/>
<rect x="131" y="16" width="31" height="17" rx="8.5" fill="#D9D9D9" fill-opacity="0.5"/>
<rect x="165" y="16" width="102" height="17" rx="8.5" fill="#D9D9D9" fill-opacity="0.5"/>
<g filter="url(#filter1_d_2_2)">
<rect x="4" y="93" width="343" height="80" rx="5" fill="white"/>
</g>
<circle cx="25.5" cy="115.5" r="12.5" fill="#CCCCCC" fill-opacity="0.25"/>
<path d="M15 142C15 139.239 17.2386 137 20 137H30C32.7614 137 35 139.239 35 142V152C35 154.761 32.7614 157 30 157H20C17.2386 157 15 154.761 15 152V142Z" fill="#DC2626" fill-opacity="0.12"/>
<rect x="50" y="107" width="54" height="17" rx="8.5" fill="#D9D9D9" fill-opacity="0.5"/>
<rect x="50" y="139" width="64" height="7" rx="2" fill="#D9D9D9" fill-opacity="0.5"/>
<rect x="118" y="139" width="44" height="7" rx="2" fill="#D9D9D9" fill-opacity="0.5"/>
<rect x="165" y="139" width="164" height="7" rx="2" fill="#D9D9D9" fill-opacity="0.5"/>
<rect x="50" y="150" width="101" height="7" rx="2" fill="#D9D9D9" fill-opacity="0.5"/>
<rect x="153" y="150" width="101" height="7" rx="2" fill="#D9D9D9" fill-opacity="0.5"/>
<rect x="108" y="107" width="76" height="17" rx="8.5" fill="#D9D9D9" fill-opacity="0.5"/>
<rect x="188" y="107" width="102" height="17" rx="8.5" fill="#D9D9D9" fill-opacity="0.5"/>
<g filter="url(#filter2_d_2_2)">
<rect x="4" y="184" width="343" height="80" rx="5" fill="white"/>
</g>
<circle cx="25.5" cy="206.5" r="12.5" fill="#CCCCCC" fill-opacity="0.25"/>
<path d="M15 233C15 230.239 17.2386 228 20 228H30C32.7614 228 35 230.239 35 233V243C35 245.761 32.7614 248 30 248H20C17.2386 248 15 245.761 15 243V233Z" fill="#DC2626" fill-opacity="0.12"/>
<rect x="50" y="198" width="78" height="17" rx="8.5" fill="#D9D9D9" fill-opacity="0.5"/>
<rect x="50" y="230" width="112" height="7" rx="2" fill="#D9D9D9" fill-opacity="0.5"/>
<rect x="165" y="230" width="164" height="7" rx="2" fill="#D9D9D9" fill-opacity="0.5"/>
<rect x="50" y="241" width="164" height="7" rx="2" fill="#D9D9D9" fill-opacity="0.5"/>
<rect x="131" y="198" width="31" height="17" rx="8.5" fill="#D9D9D9" fill-opacity="0.5"/>
<rect x="165" y="198" width="102" height="17" rx="8.5" fill="#D9D9D9" fill-opacity="0.5"/>
<g filter="url(#filter3_d_2_2)">
<rect x="4" y="275" width="343" height="80" rx="5" fill="white"/>
</g>
<circle cx="25.5" cy="297.5" r="12.5" fill="#CCCCCC" fill-opacity="0.25"/>
<path d="M15 324C15 321.239 17.2386 319 20 319H30C32.7614 319 35 321.239 35 324V334C35 336.761 32.7614 339 30 339H20C17.2386 339 15 336.761 15 334V324Z" fill="#DC2626" fill-opacity="0.12"/>
<rect x="50" y="289" width="54" height="17" rx="8.5" fill="#D9D9D9" fill-opacity="0.5"/>
<rect x="50" y="321" width="64" height="7" rx="2" fill="#D9D9D9" fill-opacity="0.5"/>
<rect x="118" y="321" width="44" height="7" rx="2" fill="#D9D9D9" fill-opacity="0.5"/>
<rect x="165" y="321" width="164" height="7" rx="2" fill="#D9D9D9" fill-opacity="0.5"/>
<rect x="50" y="332" width="101" height="7" rx="2" fill="#D9D9D9" fill-opacity="0.5"/>
<rect x="153" y="332" width="101" height="7" rx="2" fill="#D9D9D9" fill-opacity="0.5"/>
<rect x="108" y="289" width="76" height="17" rx="8.5" fill="#D9D9D9" fill-opacity="0.5"/>
<rect x="188" y="289" width="102" height="17" rx="8.5" fill="#D9D9D9" fill-opacity="0.5"/>
<path d="M228.571 108.714C240.391 108.714 250 118.307 250 130.143V237.286C250 249.105 240.391 258.714 228.571 258.714H121.429C109.593 258.714 100 249.105 100 237.286V130.143C100 118.307 109.593 108.714 121.429 108.714H228.571ZM213.772 168.915C217.422 165.266 217.422 159.306 213.772 155.656C210.123 152.007 204.163 152.007 200.513 155.656L164.286 191.884L149.487 177.085C145.837 173.435 139.877 173.435 136.228 177.085C132.568 180.734 132.568 186.694 136.228 190.344L157.656 211.772C161.306 215.422 167.266 215.422 170.915 211.772L213.772 168.915Z" fill="url(#paint0_linear_2_2)"/>
<defs>
<filter id="filter0_d_2_2" x="0.16" y="0.16" width="350.68" height="87.68" filterUnits="userSpaceOnUse" color-interpolation-filters="sRGB">
<feFlood flood-opacity="0" result="BackgroundImageFix"/>
<feColorMatrix in="SourceAlpha" type="matrix" values="0 0 0 0 0 0 0 0 0 0 0 0 0 0 0 0 0 0 127 0" result="hardAlpha"/>
<feOffset dy="2"/>
<feGaussianBlur stdDeviation="1.92"/>
<feComposite in2="hardAlpha" operator="out"/>
<feColorMatrix type="matrix" values="0 0 0 0 0.501961 0 0 0 0 0.501961 0 0 0 0 0.501961 0 0 0 0.25 0"/>
<feBlend mode="normal" in2="BackgroundImageFix" result="effect1_dropShadow_2_2"/>
<feBlend mode="normal" in="SourceGraphic" in2="effect1_dropShadow_2_2" result="shape"/>
</filter>
<filter id="filter1_d_2_2" x="0.16" y="91.16" width="350.68" height="87.68" filterUnits="userSpaceOnUse" color-interpolation-filters="sRGB">
<feFlood flood-opacity="0" result="BackgroundImageFix"/>
<feColorMatrix in="SourceAlpha" type="matrix" values="0 0 0 0 0 0 0 0 0 0 0 0 0 0 0 0 0 0 127 0" result="hardAlpha"/>
<feOffset dy="2"/>
<feGaussianBlur stdDeviation="1.92"/>
<feComposite in2="hardAlpha" operator="out"/>
<feColorMatrix type="matrix" values="0 0 0 0 0.501961 0 0 0 0 0.501961 0 0 0 0 0.501961 0 0 0 0.25 0"/>
<feBlend mode="normal" in2="BackgroundImageFix" result="effect1_dropShadow_2_2"/>
<feBlend mode="normal" in="SourceGraphic" in2="effect1_dropShadow_2_2" result="shape"/>
</filter>
<filter id="filter2_d_2_2" x="0.16" y="182.16" width="350.68" height="87.68" filterUnits="userSpaceOnUse" color-interpolation-filters="sRGB">
<feFlood flood-opacity="0" result="BackgroundImageFix"/>
<feColorMatrix in="SourceAlpha" type="matrix" values="0 0 0 0 0 0 0 0 0 0 0 0 0 0 0 0 0 0 127 0" result="hardAlpha"/>
<feOffset dy="2"/>
<feGaussianBlur stdDeviation="1.92"/>
<feComposite in2="hardAlpha" operator="out"/>
<feColorMatrix type="matrix" values="0 0 0 0 0.501961 0 0 0 0 0.501961 0 0 0 0 0.501961 0 0 0 0.25 0"/>
<feBlend mode="normal" in2="BackgroundImageFix" result="effect1_dropShadow_2_2"/>
<feBlend mode="normal" in="SourceGraphic" in2="effect1_dropShadow_2_2" result="shape"/>
</filter>
<filter id="filter3_d_2_2" x="0.16" y="273.16" width="350.68" height="87.68" filterUnits="userSpaceOnUse" color-interpolation-filters="sRGB">
<feFlood flood-opacity="0" result="BackgroundImageFix"/>
<feColorMatrix in="SourceAlpha" type="matrix" values="0 0 0 0 0 0 0 0 0 0 0 0 0 0 0 0 0 0 127 0" result="hardAlpha"/>
<feOffset dy="2"/>
<feGaussianBlur stdDeviation="1.92"/>
<feComposite in2="hardAlpha" operator="out"/>
<feColorMatrix type="matrix" values="0 0 0 0 0.501961 0 0 0 0 0.501961 0 0 0 0 0.501961 0 0 0 0.25 0"/>
<feBlend mode="normal" in2="BackgroundImageFix" result="effect1_dropShadow_2_2"/>
<feBlend mode="normal" in="SourceGraphic" in2="effect1_dropShadow_2_2" result="shape"/>
</filter>
<linearGradient id="paint0_linear_2_2" x1="175" y1="108.714" x2="175" y2="258.714" gradientUnits="userSpaceOnUse">
<stop stop-color="#00FF29"/>
<stop offset="1" stop-color="#00F0FF" stop-opacity="0"/>
</linearGradient>
</defs>
</svg>
