
<svg width="100" height="100" viewBox="0 0 100 100" fill="none" xmlns="http://www.w3.org/2000/svg">
<circle cx="50" cy="50" r="50" fill="black"/>
<path d="M21.7898 63H11.1364L23.1392 26.6364H36.6335L48.6364 63H37.983L30.0284 36.6506H29.7443L21.7898 63ZM19.8011 48.6534H39.8295V56.0398H19.8011V48.6534Z" fill="white"/>
<path d="M70.7898 63H60.1364L72.1392 26.6364H85.6335L97.6364 63H86.983L79.0284 36.6506H78.7443L70.7898 63ZM68.8011 48.6534H88.8295V56.0398H68.8011V48.6534Z" fill="white"/>
<path d="M50.3295 38.6364H60.0597V63.5653C60.0478 65.9328 59.45 68.0161 58.2663 69.8153C57.0945 71.6027 55.4728 72.9995 53.4013 74.0057C51.3416 75 48.9683 75.4972 46.2812 75.4972C43.9493 75.4972 41.8187 75.0947 39.8892 74.2898C37.9598 73.473 36.4209 72.1946 35.2727 70.4545C34.1245 68.7027 33.5563 66.4299 33.5682 63.6364H43.4403C43.4759 64.5478 43.6297 65.3172 43.902 65.9446C44.1861 66.572 44.5767 67.0455 45.0739 67.3651C45.5829 67.6728 46.1984 67.8267 46.9205 67.8267C47.6544 67.8267 48.2699 67.6669 48.767 67.3473C49.276 67.0277 49.6607 66.5542 49.9212 65.9268C50.1816 65.2876 50.3177 64.5005 50.3295 63.5653V38.6364Z" fill="white"/>
</svg>
